HIERARCHY
ROOT Root
{
  OFFSET 0.0 0.0 0.0
  CHANNELS 6 Xposition Yposition Zposition Zrotation Yrotation Xrotation
  JOINT Hips
  {
    OFFSET 0.0 100.0 0.0
    CHANNELS 6 Xposition Yposition Zposition Zrotation Yrotation Xrotation
    JOINT Spine1
    {
      OFFSET 5.003913 -0.037094 -0.013727
      CHANNELS 3 Zrotation Yrotation Xrotation
      JOINT Spine2
      {
        OFFSET 7.125363 -1e-06 0.0
        CHANNELS 3 Zrotation Yrotation Xrotation
        JOINT Chest
        {
          OFFSET 7.594027 1e-06 0.0
          CHANNELS 3 Zrotation Yrotation Xrotation
          JOINT Neck1
          {
            OFFSET 26.313086 -0.460272 -0.181672
            CHANNELS 3 Zrotation Yrotation Xrotation
            JOINT Neck2
            {
              OFFSET 8.045911 0.0 0.0
              CHANNELS 3 Zrotation Yrotation Xrotation
              JOINT Head
              {
                OFFSET 6.432774 0.0 0.0
                CHANNELS 3 Zrotation Yrotation Xrotation
                JOINT HeadEnd
                {
                  OFFSET 16.169773 0.06451 0.00362
                  CHANNELS 3 Zrotation Yrotation Xrotation
                }
                JOINT Jaw
                {
                  OFFSET 0.108741 3.12938 0.002639
                  CHANNELS 3 Zrotation Yrotation Xrotation
                }
                JOINT LeftEye
                {
                  OFFSET 4.45173 8.166359 3.206392
                  CHANNELS 3 Zrotation Yrotation Xrotation
                }
                JOINT RightEye
                {
                  OFFSET 4.436895 8.135758 -3.222429
                  CHANNELS 3 Zrotation Yrotation Xrotation
                }
              }
            }
          }
          JOINT LeftShoulder
          {
            OFFSET 23.218927 5.195579 1.621656
            CHANNELS 3 Zrotation Yrotation Xrotation
            JOINT LeftArm
            {
              OFFSET 15.902118 2e-06 -2e-06
              CHANNELS 3 Zrotation Yrotation Xrotation
              JOINT LeftForeArm
              {
                OFFSET 28.739307 0.0 -1e-06
                CHANNELS 3 Zrotation Yrotation Xrotation
                JOINT LeftHand
                {
                  OFFSET 27.093981 -4e-06 0.0
                  CHANNELS 3 Zrotation Yrotation Xrotation
                  JOINT LeftHandThumb1
                  {
                    OFFSET 2.276781 3.380274 0.83384
                    CHANNELS 3 Zrotation Yrotation Xrotation
                    JOINT LeftHandThumb2
                    {
                      OFFSET 4.705309 -1e-06 -1e-06
                      CHANNELS 3 Zrotation Yrotation Xrotation
                      JOINT LeftHandThumb3
                      {
                        OFFSET 2.798515 0.0 3e-06
                        CHANNELS 3 Zrotation Yrotation Xrotation
                        JOINT LeftHandThumbEnd
                        {
                          OFFSET 3.180793 4e-06 -4e-06
                          CHANNELS 3 Zrotation Yrotation Xrotation
                        }
                      }
                    }
                  }
                  JOINT LeftHandIndex1
                  {
                    OFFSET 3.247786 2.352677 0.137192
                    CHANNELS 3 Zrotation Yrotation Xrotation
                    JOINT LeftHandIndex2
                    {
                      OFFSET 6.367095 1e-06 0.0
                      CHANNELS 3 Zrotation Yrotation Xrotation
                      JOINT LeftHandIndex3
                      {
                        OFFSET 3.662364 0.0 0.0
                        CHANNELS 3 Zrotation Yrotation Xrotation
                        JOINT LeftHandIndex4
                        {
                          OFFSET 2.329242 4e-06 -4e-06
                          CHANNELS 3 Zrotation Yrotation Xrotation
                          JOINT LeftHandIndexEnd
                          {
                            OFFSET 2.767823 1e-06 0.0
                            CHANNELS 3 Zrotation Yrotation Xrotation
                          }
                        }
                      }
                    }
                  }
                  JOINT LeftHandMiddle1
                  {
                    OFFSET 3.163612 0.945023 -0.406112
                    CHANNELS 3 Zrotation Yrotation Xrotation
                    JOINT LeftHandMiddle2
                    {
                      OFFSET 6.276789 3e-06 0.0
                      CHANNELS 3 Zrotation Yrotation Xrotation
                      JOINT LeftHandMiddle3
                      {
                        OFFSET 4.35652 -1e-06 4e-06
                        CHANNELS 3 Zrotation Yrotation Xrotation
                        JOINT LeftHandMiddle4
                        {
                          OFFSET 2.996877 0.0 8e-06
                          CHANNELS 3 Zrotation Yrotation Xrotation
                          JOINT LeftHandMiddleEnd
                          {
                            OFFSET 2.323256 3e-06 -4e-06
                            CHANNELS 3 Zrotation Yrotation Xrotation
                          }
                        }
                      }
                    }
                  }
                  JOINT LeftHandRing1
                  {
                    OFFSET 2.882606 -0.309162 0.107445
                    CHANNELS 3 Zrotation Yrotation Xrotation
                    JOINT LeftHandRing2
                    {
                      OFFSET 6.033198 0.0 4e-06
                      CHANNELS 3 Zrotation Yrotation Xrotation
                      JOINT LeftHandRing3
                      {
                        OFFSET 4.350578 3e-06 0.0
                        CHANNELS 3 Zrotation Yrotation Xrotation
                        JOINT LeftHandRing4
                        {
                          OFFSET 2.651321 2e-06 -7e-06
                          CHANNELS 3 Zrotation Yrotation Xrotation
                          JOINT LeftHandRingEnd
                          {
                            OFFSET 1.937663 1e-06 -4e-06
                            CHANNELS 3 Zrotation Yrotation Xrotation
                          }
                        }
                      }
                    }
                  }
                  JOINT LeftHandPinky1
                  {
                    OFFSET 2.865315 -1.525436 0.575687
                    CHANNELS 3 Zrotation Yrotation Xrotation
                    JOINT LeftHandPinky2
                    {
                      OFFSET 5.54936 1e-06 -8e-06
                      CHANNELS 3 Zrotation Yrotation Xrotation
                      JOINT LeftHandPinky3
                      {
                        OFFSET 3.070974 0.0 -4e-06
                        CHANNELS 3 Zrotation Yrotation Xrotation
                        JOINT LeftHandPinky4
                        {
                          OFFSET 1.549672 1e-06 0.0
                          CHANNELS 3 Zrotation Yrotation Xrotation
                          JOINT LeftHandPinkyEnd
                          {
                            OFFSET 1.952123 0.0 0.0
                            CHANNELS 3 Zrotation Yrotation Xrotation
                          }
                        }
                      }
                    }
                  }
                }
              }
            }
          }
          JOINT RightShoulder
          {
            OFFSET 23.161716 5.296122 -1.380114
            CHANNELS 3 Zrotation Yrotation Xrotation
            JOINT RightArm
            {
              OFFSET -16.027195 -2e-06 1.1e-05
              CHANNELS 3 Zrotation Yrotation Xrotation
              JOINT RightForeArm
              {
                OFFSET -28.736639 4e-06 2e-06
                CHANNELS 3 Zrotation Yrotation Xrotation
                JOINT RightHand
                {
                  OFFSET -27.133619 6e-06 0.0
                  CHANNELS 3 Zrotation Yrotation Xrotation
                  JOINT RightHandThumb1
                  {
                    OFFSET -2.274328 -3.351035 -0.83067
                    CHANNELS 3 Zrotation Yrotation Xrotation
                    JOINT RightHandThumb2
                    {
                      OFFSET -4.703594 -3e-06 2e-06
                      CHANNELS 3 Zrotation Yrotation Xrotation
                      JOINT RightHandThumb3
                      {
                        OFFSET -2.794935 -4e-06 -3e-06
                        CHANNELS 3 Zrotation Yrotation Xrotation
                        JOINT RightHandThumbEnd
                        {
                          OFFSET -3.183852 4e-06 1e-06
                          CHANNELS 3 Zrotation Yrotation Xrotation
                        }
                      }
                    }
                  }
                  JOINT RightHandIndex1
                  {
                    OFFSET -3.253496 -2.33755 -0.127667
                    CHANNELS 3 Zrotation Yrotation Xrotation
                    JOINT RightHandIndex2
                    {
                      OFFSET -6.344434 0.0 0.0
                      CHANNELS 3 Zrotation Yrotation Xrotation
                      JOINT RightHandIndex3
                      {
                        OFFSET -3.654871 0.0 -8e-06
                        CHANNELS 3 Zrotation Yrotation Xrotation
                        JOINT RightHandIndex4
                        {
                          OFFSET -2.327586 -1e-06 0.0
                          CHANNELS 3 Zrotation Yrotation Xrotation
                          JOINT RightHandIndexEnd
                          {
                            OFFSET -2.770001 3e-06 8e-06
                            CHANNELS 3 Zrotation Yrotation Xrotation
                          }
                        }
                      }
                    }
                  }
                  JOINT RightHandMiddle1
                  {
                    OFFSET -3.168223 -0.944764 0.411762
                    CHANNELS 3 Zrotation Yrotation Xrotation
                    JOINT RightHandMiddle2
                    {
                      OFFSET -6.266691 -1e-06 -4e-06
                      CHANNELS 3 Zrotation Yrotation Xrotation
                      JOINT RightHandMiddle3
                      {
                        OFFSET -4.348901 0.0 0.0
                        CHANNELS 3 Zrotation Yrotation Xrotation
                        JOINT RightHandMiddle4
                        {
                          OFFSET -3.00024 2e-06 -4e-06
                          CHANNELS 3 Zrotation Yrotation Xrotation
                          JOINT RightHandMiddleEnd
                          {
                            OFFSET -2.321477 -4e-06 -4e-06
                            CHANNELS 3 Zrotation Yrotation Xrotation
                          }
                        }
                      }
                    }
                  }
                  JOINT RightHandRing1
                  {
                    OFFSET -2.885654 0.293261 -0.119232
                    CHANNELS 3 Zrotation Yrotation Xrotation
                    JOINT RightHandRing2
                    {
                      OFFSET -6.032835 -1e-06 -4e-06
                      CHANNELS 3 Zrotation Yrotation Xrotation
                      JOINT RightHandRing3
                      {
                        OFFSET -4.33881 0.0 -4e-06
                        CHANNELS 3 Zrotation Yrotation Xrotation
                        JOINT RightHandRing4
                        {
                          OFFSET -2.654903 -4e-06 -4e-06
                          CHANNELS 3 Zrotation Yrotation Xrotation
                          JOINT RightHandRingEnd
                          {
                            OFFSET -1.935122 0.0 4e-06
                            CHANNELS 3 Zrotation Yrotation Xrotation
                          }
                        }
                      }
                    }
                  }
                  JOINT RightHandPinky1
                  {
                    OFFSET -2.866241 1.503904 -0.60527
                    CHANNELS 3 Zrotation Yrotation Xrotation
                    JOINT RightHandPinky2
                    {
                      OFFSET -5.553177 -2e-06 0.0
                      CHANNELS 3 Zrotation Yrotation Xrotation
                      JOINT RightHandPinky3
                      {
                        OFFSET -3.062664 -1e-06 -4e-06
                        CHANNELS 3 Zrotation Yrotation Xrotation
                        JOINT RightHandPinky4
                        {
                          OFFSET -1.546529 2e-06 4e-06
                          CHANNELS 3 Zrotation Yrotation Xrotation
                          JOINT RightHandPinkyEnd
                          {
                            OFFSET -1.952341 0.0 -4e-06
                            CHANNELS 3 Zrotation Yrotation Xrotation
                          }
                        }
                      }
                    }
                  }
                }
              }
            }
          }
        }
      }
    }
    JOINT LeftLeg
    {
      OFFSET -8.443107 2.567604 10.043214
      CHANNELS 3 Zrotation Yrotation Xrotation
      JOINT LeftShin
      {
        OFFSET 43.229198 1e-06 -1e-06
        CHANNELS 3 Zrotation Yrotation Xrotation
        JOINT LeftFoot
        {
          OFFSET 42.298611 1e-06 1e-06
          CHANNELS 3 Zrotation Yrotation Xrotation
          JOINT LeftToeBase
          {
            OFFSET 14.165858 1e-06 0.0
            CHANNELS 3 Zrotation Yrotation Xrotation
            JOINT LeftToeEnd
            {
              OFFSET 6.7141 -0.234461 0.0
              CHANNELS 3 Zrotation Yrotation Xrotation
            }
          }
        }
      }
    }
    JOINT RightLeg
    {
      OFFSET -8.303923 2.592729 -10.047278
      CHANNELS 3 Zrotation Yrotation Xrotation
      JOINT RightShin
      {
        OFFSET -43.369682 0.0 1e-06
        CHANNELS 3 Zrotation Yrotation Xrotation
        JOINT RightFoot
        {
          OFFSET -42.260784 4e-06 2e-06
          CHANNELS 3 Zrotation Yrotation Xrotation
          JOINT RightToeBase
          {
            OFFSET -14.222245 -2e-06 -1e-06
            CHANNELS 3 Zrotation Yrotation Xrotation
            JOINT RightToeEnd
            {
              OFFSET -6.660062 0.232574 -2e-06
              CHANNELS 3 Zrotation Yrotation Xrotation
            }
          }
        }
      }
    }
  }
}
MOTION
Frames: 4
Frame Time: 0.03333333333333333
0.0 0.0 0.0 0.0 -0.0 0.0 10.603724 116.454361 -82.923775 -88.631027 -81.747971 -92.675407 27.08744 -0.021993 0.298287 -1.704748 1.139027 -0.380304 30.310625 0.653707 -5.711114 14.355721 -1.073537 -3.345155 -3.110957 -0.7122 5.063247 -31.029976 0.071807 -1.572825 7e-06 -0.0 -0.0 -0.183609 -0.157185 -0.255987 0.771122 -0.583525 0.119587 0.601822 0.218432 -0.648139 22.566296 -73.015091 -17.534111 8.007266 -14.171529 -10.064203 99.305908 4.525856 -8.003448 15.719913 -32.233017 -105.734718 17.636473 -26.322615 52.41111 -19.466652 -14.395664 29.410395 -3e-06 -8.774829 1.5e-05 13.854648 -10.187868 1.669067 -0.609769 -1.795649 -3.889323 -4.807079 -11.04676 -2.937845 2.3e-05 -20.975916 -2.1e-05 -5.019938 -25.033455 -4.031904 6e-06 0.0 1e-06 -10.634517 -5.686953 -3.565566 10.573278 -17.922861 -3.113926 9e-06 -13.821141 -5e-06 -0.501746 -31.181381 -4.027027 -6.934912 -44.457775 5.167808 -13.982695 -7.150169 -2.875017 13.772727 -8.401456 -3.21827 0.34775 -34.211388 0.771635 -0.963024 -17.73332 2.621018 0.0 1e-06 -0.0 -17.346394 -20.095131 -4.20176 21.757557 -1.63837 3.866381 2e-06 -6.338794 1e-06 -1.697577 -22.59166 -6.194014 0.0 -4e-06 -2e-06 -157.892975 -73.855652 -12.279881 41.995239 -16.639988 -25.964912 93.770805 0.612475 15.365286 4.7982 29.859116 16.433395 22.182241 -20.375858 49.933197 -16.701838 -16.743536 28.476467 -3.2e-05 -12.690637 -2.3e-05 15.953545 -15.38517 2.395089 -0.10592 -1.513854 -4.275873 -5.039043 -5.612851 -2.953556 3.4e-05 -11.020521 -3e-06 -6.111274 -15.895336 -3.840495 -1e-06 0.0 1e-06 -10.283389 -5.680262 -4.341837 11.028336 -11.30241 -2.372622 -1.384247 -14.238566 -6.320123 -0.625367 -26.924232 -3.827583 -5.388471 -49.018017 -2.651622 -13.708549 -7.363443 -3.72094 18.141211 -14.052756 -3.242657 5.6e-05 -18.78727 4e-06 -0.429685 -8.456066 2.555527 4e-06 0.0 -0.0 -15.923543 -20.094418 -5.473588 30.419279 -7.190897 1.735955 2.3e-05 -8.162929 7e-06 -1.861856 -22.861502 -6.167929 2e-06 -2e-06 -1e-06 105.097832 -9.017889 -34.36433 71.704063 -1.342496 1.287056 -84.641518 35.216209 7.272229 -10.816349 1.315635 0.976672 -1.0 -0.0 -0.0 -82.748238 -6.807448 -1.684331 69.197594 -1.833259 0.40184 -81.486206 -2.532978 -7.74125 -8.957635 0.511172 1.309591 -1.000002 -0.0 0.0 
0.0 0.0 0.0 0.0 -0.0 0.0 11.029752 109.538033 -92.486221 77.972618 -83.841995 99.052368 26.434269 -0.082906 -0.011616 -1.162036 -0.170629 -1.337762 31.361528 -1.147108 -5.517639 16.433928 -3.584809 -1.041193 -3.216498 -0.709357 4.283871 -32.028793 -0.823839 0.628429 4e-06 0.0 -0.0 -0.113936 -0.35851 -0.288193 1.128733 -0.804821 0.138397 0.703451 0.102988 -0.706038 40.028103 -72.712936 -33.578342 12.696991 -7.269004 -15.678836 79.070618 0.418511 -8.825571 33.650818 -3.366633 -82.720604 17.636887 -26.322927 52.411716 -19.466824 -14.395635 29.410662 -7e-06 -8.774905 -3.1e-05 -1.07984 3.889005 16.915998 -0.609787 -1.795664 -3.889355 -4.807121 -11.046881 -2.937906 4.6e-05 -20.9762 -2.6e-05 -5.019942 -25.033844 -4.031992 6e-06 -1e-06 -3e-06 -10.634612 -5.686998 -3.56564 10.573376 -17.923086 -3.113923 3.1e-05 -13.821327 -5e-06 -0.501685 -31.181887 -4.027106 0.486908 -3.379104 -6.833231 -13.982813 -7.150236 -2.875101 13.77284 -8.401564 -3.218249 0.347814 -34.211887 0.771645 -0.963013 -17.733587 2.621086 -1e-06 2e-06 -2e-06 -17.346521 -20.095335 -4.201882 21.757717 -1.638425 3.866518 1.6e-05 -6.338875 -1e-06 -1.69754 -22.591993 -6.19414 0.0 -4e-06 0.0 -145.029968 -73.163208 -26.527092 46.845299 -11.072511 -25.64403 79.28331 5.272515 11.055851 5.16943 33.690575 31.505362 22.182182 -20.376047 49.933743 -16.702047 -16.743584 28.476873 -1.9e-05 -12.69069 5e-06 15.660358 -15.891975 3.458297 -0.105922 -1.513877 -4.275917 -5.039063 -5.612943 -2.953598 1.7e-05 -11.020697 -2.5e-05 -6.111309 -15.895648 -3.84056 0.0 -1e-06 0.0 -10.283411 -5.680345 -4.341882 11.02836 -11.302553 -2.372676 -1.384247 -14.238814 -6.320236 -0.625358 -26.924763 -3.827741 -3.885293 -51.605061 -2.948761 -13.708578 -7.363549 -3.72098 18.141262 -14.052925 -3.242741 4.2e-05 -18.787563 -4.7e-05 -0.429703 -8.456202 2.555529 0.0 -0.0 -0.0 -15.923587 -20.094696 -5.473649 30.419353 -7.190912 1.735904 1.2e-05 -8.163041 -2e-05 -1.861824 -22.861919 -6.168106 0.0 -5e-06 -1e-06 108.924744 -8.07253 -25.715807 48.112751 -0.769325 0.756756 -81.495125 27.975176 -1.241478 -10.858047 1.387456 1.411928 -0.999999 0.0 -2e-06 -77.143692 -3.722316 -2.077595 46.585171 -0.007236 0.239023 -79.296646 0.479585 -7.061441 -9.335657 0.273621 1.103384 -1.000007 0.0 -0.0 
0.0 0.0 0.0 0.0 -0.0 0.0 10.751761 99.083778 -101.084282 83.188126 -69.23922 92.427361 27.55175 -0.778311 -0.488024 -1.244114 -0.814877 -1.001694 31.13661 -2.229059 -4.213517 18.237534 -3.540673 1.896135 -2.955445 -1.911728 2.8202 -31.800982 -0.990581 1.563434 5e-06 0.0 -0.0 -0.037429 -0.3815 -0.184267 1.633486 -0.674423 0.270824 1.027241 -0.066052 -0.65125 59.424278 -73.643517 -50.643314 20.099852 -1.844265 -17.376148 58.693291 -2.583609 -5.987411 42.251255 40.255394 29.447184 17.636627 -26.322824 52.41119 -19.466507 -14.395679 29.410307 -4e-06 -8.774822 1e-06 15.426901 -14.402284 -4.0367 -0.609773 -1.795631 -3.88932 -4.807071 -11.046712 -2.93782 1.1e-05 -20.975832 6.1e-05 -5.019979 -25.033302 -4.031813 7e-06 -0.0 1e-06 -10.634521 -5.686918 -3.565575 10.573269 -17.922815 -3.11385 -1e-06 -13.821101 5e-05 -0.501853 -31.181225 -4.026862 -8.307371 -45.635101 1.816226 -13.982699 -7.150135 -2.87503 13.772727 -8.401436 -3.218224 0.347693 -34.211266 0.771794 -0.963072 -17.733253 2.621091 -3e-06 2e-06 -1e-06 -17.346394 -20.095055 -4.201759 21.757545 -1.638395 3.866412 4e-06 -6.338779 2.7e-05 -1.697615 -22.591555 -6.193902 -3e-06 -2e-06 -2e-06 -134.762436 -72.884537 -37.215351 50.757893 -5.597731 -23.132469 62.117935 7.947729 6.545012 7.103059 38.23534 37.498386 22.182104 -20.375858 49.933201 -16.701609 -16.743502 28.476351 2.3e-05 -12.690558 -9e-06 16.611145 -16.07535 2.851645 -0.105923 -1.513839 -4.275865 -5.039038 -5.612822 -2.953537 -1.5e-05 -11.020416 1.4e-05 -6.111308 -15.895183 -3.84046 -1e-06 0.0 -2e-06 -10.283362 -5.680254 -4.341825 11.028238 -11.302282 -2.372591 -1.384298 -14.23843 -6.320076 -0.625481 -26.923883 -3.827559 -3.731894 -51.347099 -3.159389 -13.70851 -7.363436 -3.720927 18.141062 -14.052585 -3.242612 -4.1e-05 -18.787092 3.6e-05 -0.429731 -8.45597 2.555511 -1e-06 -2e-06 -1e-06 -15.923541 -20.094351 -5.473557 30.419123 -7.190734 1.735974 -1.3e-05 -8.162856 2.2e-05 -1.861971 -22.86125 -6.167864 -1e-06 -3e-06 -1e-06 116.836708 -6.948575 -9.752709 37.672455 -0.843611 0.984587 -79.716438 10.180148 1.322245 -16.566608 1.754338 1.878142 -0.999998 0.0 0.0 -69.19725 -0.826092 -2.212144 37.053513 0.576085 -0.03894 -80.658661 5.244902 -7.728848 -14.110848 0.30564 1.151989 -1.000005 0.0 0.0 
0.0 0.0 0.0 0.0 -0.0 0.0 10.165646 89.153114 -108.873024 87.649162 -57.282207 89.622025 29.526491 -1.23412 -0.839866 -1.306779 -0.537428 -0.696629 27.991961 -3.157887 -3.683945 19.853392 -3.194373 2.896578 -2.653983 -1.315333 2.622011 -28.326797 0.316792 0.735201 6e-06 -0.0 0.0 -0.056305 -0.07928 -0.010241 1.120058 -0.21818 0.310582 0.755099 0.06539 -0.318236 80.532532 -73.990219 -69.565147 28.215765 5.236945 -16.994493 42.724014 -3.808504 -1.76324 40.211819 49.724266 32.400242 17.63665 -26.322672 52.410999 -19.466642 -14.395542 29.410295 -1.2e-05 -8.774804 -1e-05 17.489788 -16.141993 1.357454 -0.609775 -1.79565 -3.889316 -4.807064 -11.046802 -2.937844 2.9e-05 -20.976032 8e-06 -5.019928 -25.033609 -4.031852 7e-06 -1e-06 0.0 -10.634505 -5.686952 -3.565581 10.573258 -17.922953 -3.113883 2e-05 -13.821218 1e-05 -0.501744 -31.181593 -4.026973 -11.634836 -55.764366 6.65016 -13.982674 -7.150177 -2.87504 13.772696 -8.401504 -3.218225 0.347777 -34.21159 0.771667 -0.963016 -17.733429 2.621051 -3e-06 1e-06 -1e-06 -17.346363 -20.095175 -4.201773 21.757498 -1.638394 3.866428 1.1e-05 -6.338829 2e-06 -1.697548 -22.591806 -6.194 1e-06 -5e-06 -2e-06 -122.197861 -71.516243 -50.232479 49.949203 -1.129346 -23.230392 44.512321 6.232956 2.587114 10.226336 45.34893 31.073502 22.182089 -20.375824 49.933212 -16.701759 -16.74346 28.47646 -4e-06 -12.690565 -1.2e-05 16.038479 -16.713879 3.184661 -0.105921 -1.513849 -4.275869 -5.039029 -5.612862 -2.953556 8e-06 -11.020509 -7e-06 -6.111269 -15.895338 -3.840494 -0.0 0.0 -0.0 -10.283348 -5.680271 -4.341834 11.028262 -11.302382 -2.37262 -1.384262 -14.238565 -6.320124 -0.62541 -26.924212 -3.827619 -3.86308 -51.072258 -3.153887 -13.708489 -7.363463 -3.720938 18.141096 -14.052714 -3.242655 1.7e-05 -18.787254 -7e-06 -0.429707 -8.456054 2.555513 -1e-06 1e-06 -1e-06 -15.923491 -20.094429 -5.473586 30.419115 -7.190816 1.735947 6e-06 -8.162915 1e-06 -1.861868 -22.861481 -6.167953 -0.0 -2e-06 -2e-06 118.278648 -1.979348 0.0856 56.63636 -0.351678 0.258871 -103.443344 -6.485991 5.776326 -11.424172 1.753456 2.121582 -1.0 0.0 0.0 -70.137199 -1.604353 1.967597 58.329418 0.549603 -0.104201 -103.042282 3.798569 -4.010541 -9.551041 0.198793 1.417867 -1.0 -0.0 0.0 
